<?xml version="1.0" standalone="no"?>
<!DOCTYPE svg PUBLIC "-//W3C//DTD SVG 20010904//EN"
 "http://www.w3.org/TR/2001/REC-SVG-20010904/DTD/svg10.dtd">
<svg version="1.0" xmlns="http://www.w3.org/2000/svg"
 width="360.000000pt" height="360.000000pt" viewBox="0 0 360.000000 360.000000"
 preserveAspectRatio="xMidYMid meet">
<metadata>
Created by potrace 1.11, written by Peter Selinger 2001-2013
</metadata>
<g transform="translate(0.000000,360.000000) scale(0.100000,-0.100000)"
fill="#000000" stroke="none">
<path d="M898 3117 c-487 -128 -889 -234 -891 -237 -3 -3 107 -83 244 -179
l248 -174 -70 -65 c-88 -82 -148 -159 -205 -266 -45 -85 -88 -196 -76 -196 4
1 18 7 32 15 39 23 40 19 9 -46 -125 -258 -149 -569 -64 -839 140 -446 545
-782 1042 -865 144 -24 451 -17 573 13 478 118 839 415 996 823 40 103 73 242
74 305 0 47 7 59 27 42 31 -25 38 8 38 170 0 181 -12 240 -74 367 -22 44 -38
81 -36 83 5 5 347 91 362 92 23 0 33 -68 33 -226 -1 -87 -1 -188 -1 -224 0
-36 -7 -109 -15 -163 -9 -54 -14 -100 -11 -103 2 -3 12 24 22 60 10 36 22 63
26 60 5 -3 10 -40 10 -82 l1 -77 10 50 c5 28 13 68 17 90 l7 40 21 -80 21 -80
2 75 1 75 34 -85 c19 -47 34 -82 34 -78 1 4 -6 39 -14 79 -9 40 -14 74 -12 76
3 2 30 -28 62 -67 31 -38 59 -70 62 -70 2 0 -14 34 -37 75 -23 41 -39 75 -35
75 3 0 32 -19 63 -42 74 -53 86 -60 43 -23 -89 76 -89 76 12 30 53 -24 97 -43
97 -41 0 2 -51 34 -112 71 -112 66 -113 68 -146 135 -36 73 -53 93 -90 105
-21 6 -23 11 -17 43 3 21 13 59 22 86 19 59 13 154 -13 193 -9 15 -17 35 -18
44 -1 18 -1392 1170 -1411 1168 -5 0 -409 -105 -897 -232z"/>
</g>
</svg>
